# xmcd
#
# Track frame offsets:
#	300
#	17583
#	35932
#	52481
#	70611
#	89454
#	105824
#	121689
#	137550
#	156440
#	174205
#	191224
#	210322
#	228387
#	247342
#
# Disc length: 3602 seconds
#
# Revision: 1
# Processed by: cddbd v1.5.2PL0 Copyright (c) Steve Scherf et al.
# Submitted via: audiograbber 1.83.01
#
DISCID=d00e0e0f
DTITLE=Various Artist - sc8920
DYEAR=1900
DGENRE=country
TTITLE0=leann rimes - probably wouldn't be this way
TTITLE1=dierks bentley - lot of leaving left to do
TTITLE2=trick pony - it's a heartache
TTITLE3=travis tritt - I see me
TTITLE4=big and rich - big time
TTITLE5=blake shelton - goodbye time
TTITLE6=kenny chesney - guitars and tiki bars
TTITLE7=craig morgan - that's what I love about sunday
TTITLE8=terri clark - world needs a drink
TTITLE9=billy dean - let them be little
TTITLE10=toby keith - honky tonk u
TTITLE11=gearge canyon - my name
TTITLE12=gretchen wilson - what happened
TTITLE13=rebecca lynn howard - that's why I hate pontiacs
TTITLE14=darryl worley - if something should happen
EXTD=
EXTT0=
EXTT1=
EXTT2=
EXTT3=
EXTT4=
EXTT5=
EXTT6=
EXTT7=
EXTT8=
EXTT9=
EXTT10=
EXTT11=
EXTT12=
EXTT13=
EXTT14=
PLAYORDER=
